# xmcd
#
# Track frame offsets:
#	150
#	23994
#	43264
#	62704
#	86157
#	111538
#	135827
#	156764
#	182531
#	207146
#
# Disc length: 3076 seconds
#
# Revision: 0
# Processed by: cddbd v1.5PL3 Copyright (c) Steve Scherf et al.
# Submitted via: dBpowerAMP V4.0
#
DISCID=860c020a
DTITLE=Tony Janflone Jr - In Time
DYEAR=1998
DGENRE=Blues
TTITLE0=In Time
TTITLE1=Deliver The Goods
TTITLE2=Drive My Car
TTITLE3=One Love
TTITLE4=Split Second
TTITLE5=Hey Joe
TTITLE6=Crocodile Tears
TTITLE7=As Long As It Takes
TTITLE8=Europa
TTITLE9=Now is The Time
EXTD=
EXTT0=
EXTT1=
EXTT2=
EXTT3=
EXTT4=
EXTT5=
EXTT6=
EXTT7=
EXTT8=
EXTT9=
PLAYORDER=
